<svg width="66" height="30" viewBox="0 0 66 30" fill="none" xmlns="http://www.w3.org/2000/svg">
<path d="M23.8906 10.3281C24.1771 10.5365 24.3854 10.6927 24.5156 10.7969C24.6719 10.875 24.7891 10.9401 24.8672 10.9922C24.9714 11.0443 25.0625 11.1094 25.1406 11.1875C25.2448 11.2656 25.401 11.3828 25.6094 11.5391C25.4792 11.8255 25.4141 12.0469 25.4141 12.2031C25.4141 12.3594 25.4271 12.5156 25.4531 12.6719C25.4792 12.8021 25.5052 12.9453 25.5312 13.1016C25.5833 13.2578 25.5964 13.4661 25.5703 13.7266C24.138 14.638 22.862 15.3672 21.7422 15.9141C20.6484 16.4349 19.5807 16.8906 18.5391 17.2812C17.5234 17.6719 16.4557 18.0495 15.3359 18.4141C14.2422 18.7526 12.9661 19.2083 11.5078 19.7812C12.1068 20.1458 12.875 20.4714 13.8125 20.7578C14.776 21.0182 15.7266 21.3307 16.6641 21.6953C17.6276 22.0339 18.5 22.4635 19.2812 22.9844C20.0625 23.5052 20.5833 24.1823 20.8438 25.0156C21.2083 25.0417 21.5208 25.25 21.7812 25.6406C22.0677 26.0312 22.1849 26.487 22.1328 27.0078C21.8724 27.1641 21.625 27.3464 21.3906 27.5547C21.1823 27.737 20.9089 27.8802 20.5703 27.9844C20.2839 28.0365 19.9062 28.0104 19.4375 27.9062C18.9948 27.8021 18.5 27.6589 17.9531 27.4766C17.4323 27.2943 16.8724 27.099 16.2734 26.8906C15.7005 26.6823 15.1536 26.513 14.6328 26.3828C14.112 26.2526 13.5391 26.1354 12.9141 26.0312C12.3151 25.9271 11.7552 25.7708 11.2344 25.5625C11 25.4583 10.7917 25.3411 10.6094 25.2109C10.4531 25.0547 10.2578 24.9505 10.0234 24.8984C9.55469 24.8203 9.04688 24.6771 8.5 24.4688C7.97917 24.2344 7.44531 23.987 6.89844 23.7266C6.35156 23.4661 5.80469 23.2057 5.25781 22.9453C4.73698 22.6849 4.24219 22.4505 3.77344 22.2422C3.79948 22.0859 3.63021 21.8906 3.26562 21.6562C2.90104 21.4219 2.51042 21.2917 2.09375 21.2656C2.09375 20.9531 1.96354 20.6797 1.70312 20.4453C1.46875 20.1849 1.28646 19.8984 1.15625 19.5859C0.869792 18.8568 0.973958 18.1667 1.46875 17.5156C1.96354 16.8646 2.70573 16.474 3.69531 16.3438C4.00781 16.4479 4.24219 16.5 4.39844 16.5C4.58073 16.474 4.8151 16.526 5.10156 16.6562C5.57031 16.3438 6.13021 16.0443 6.78125 15.7578C7.45833 15.4453 8.10938 15.3542 8.73438 15.4844C8.8125 15.276 8.95573 15.1719 9.16406 15.1719C9.39844 15.1719 9.54167 15.0547 9.59375 14.8203C10.6615 14.638 11.7031 14.3516 12.7188 13.9609C13.7344 13.5703 14.724 13.1536 15.6875 12.7109C16.651 12.2422 17.5755 11.7865 18.4609 11.3438C19.3724 10.875 20.2448 10.4583 21.0781 10.0938C21.4427 10.1979 21.7812 10.1979 22.0938 10.0938C22.4062 9.96354 22.7318 9.91146 23.0703 9.9375C22.9922 10.0156 22.9792 10.0677 23.0312 10.0938C23.0833 10.1198 23.1615 10.1458 23.2656 10.1719C23.3698 10.1719 23.474 10.1849 23.5781 10.2109C23.7083 10.2109 23.8125 10.25 23.8906 10.3281ZM37.3281 7.08594C37.7969 6.7474 38.3047 6.20052 38.8516 5.44531C39.3984 4.66406 39.9714 3.89583 40.5703 3.14062C41.1953 2.38542 41.8203 1.73438 42.4453 1.1875C43.0964 0.614583 43.7474 0.367188 44.3984 0.445312C44.8151 1.38281 45.0365 2.32031 45.0625 3.25781C45.0885 4.16927 44.9974 5.21094 44.7891 6.38281C44.5547 6.66927 44.2161 7.0599 43.7734 7.55469C43.3307 8.04948 42.8359 8.60938 42.2891 9.23438C41.7682 9.83333 41.2214 10.4583 40.6484 11.1094C40.0755 11.7604 39.5286 12.3854 39.0078 12.9844C38.513 13.5833 38.0703 14.1302 37.6797 14.625C37.3151 15.1198 37.0677 15.5104 36.9375 15.7969C36.5729 16.1875 36.0781 16.7344 35.4531 17.4375C34.8542 18.1406 34.2292 18.8828 33.5781 19.6641C32.9271 20.4453 32.2891 21.2135 31.6641 21.9688C31.0651 22.6979 30.5703 23.3099 30.1797 23.8047C30.1536 23.9349 30.1927 24.0521 30.2969 24.1562C30.401 24.2604 30.4792 24.3776 30.5312 24.5078C30.2448 24.7682 30.0755 25.0156 30.0234 25.25C29.9714 25.4583 29.9583 25.6797 29.9844 25.9141C30.0104 26.1484 30.0495 26.3828 30.1016 26.6172C30.1536 26.8255 30.1667 27.0599 30.1406 27.3203C29.9583 27.4766 29.8021 27.6589 29.6719 27.8672C29.5677 28.0755 29.4505 28.2839 29.3203 28.4922C29.2161 28.6745 29.0729 28.8568 28.8906 29.0391C28.7344 29.2214 28.526 29.3776 28.2656 29.5078C27.7188 29.4557 27.276 29.3776 26.9375 29.2734C26.599 29.1953 26.1953 29.1172 25.7266 29.0391C25.2839 28.6745 24.9844 28.2318 24.8281 27.7109C24.6719 27.1641 24.6068 26.6172 24.6328 26.0703C24.6328 25.4974 24.6979 24.9375 24.8281 24.3906C24.9323 23.8177 25.0495 23.3229 25.1797 22.9062C25.4661 22.724 25.4792 22.5938 25.2188 22.5156C25.3229 22.151 25.5052 21.8516 25.7656 21.6172C26.026 21.3568 26.1562 21.1354 26.1562 20.9531C26.3385 20.6667 26.6901 20.237 27.2109 19.6641C27.7318 19.0651 28.2917 18.4271 28.8906 17.75C29.5156 17.0729 30.1146 16.4219 30.6875 15.7969C31.2604 15.1458 31.7031 14.638 32.0156 14.2734C32.1719 13.8568 32.5234 13.3229 33.0703 12.6719C33.6432 11.9948 34.2292 11.3047 34.8281 10.6016C35.4531 9.89844 36.013 9.23438 36.5078 8.60938C37.0286 7.98438 37.3021 7.47656 37.3281 7.08594ZM63.9688 16.6562C63.9688 16.9688 64.0859 17.2552 64.3203 17.5156C64.5807 17.75 64.776 18.0234 64.9062 18.3359C65.0625 18.7005 65.1016 19.0651 65.0234 19.4297C64.9714 19.7943 64.8281 20.1198 64.5938 20.4062C64.3594 20.6927 64.0469 20.9401 63.6562 21.1484C63.2917 21.3568 62.862 21.5 62.3672 21.5781C62.0547 21.4479 61.8073 21.3958 61.625 21.4219C61.4688 21.4479 61.2474 21.3958 60.9609 21.2656C60.4922 21.5781 59.9193 21.8906 59.2422 22.2031C58.5911 22.4896 57.9531 22.5677 57.3281 22.4375C57.25 22.6458 57.0938 22.75 56.8594 22.75C56.651 22.75 56.5208 22.8672 56.4688 23.1016C55.401 23.2839 54.3594 23.5703 53.3438 23.9609C52.3281 24.3516 51.3385 24.7812 50.375 25.25C49.4115 25.6927 48.474 26.1484 47.5625 26.6172C46.6771 27.0859 45.8177 27.4896 44.9844 27.8281C44.6198 27.724 44.2812 27.737 43.9688 27.8672C43.6562 27.9714 43.3307 28.0104 42.9922 27.9844C43.0703 27.9062 43.0833 27.8542 43.0312 27.8281C42.9792 27.8021 42.901 27.7891 42.7969 27.7891C42.6927 27.763 42.5755 27.75 42.4453 27.75C42.3411 27.724 42.25 27.6719 42.1719 27.5938C41.8854 27.4115 41.6771 27.2682 41.5469 27.1641C41.3906 27.0599 41.2734 26.9818 41.1953 26.9297C41.0911 26.8776 40.987 26.8125 40.8828 26.7344C40.7786 26.6562 40.6354 26.5391 40.4531 26.3828C40.5573 26.1224 40.6224 25.9141 40.6484 25.7578C40.6484 25.5755 40.6354 25.4193 40.6094 25.2891C40.5833 25.1328 40.5573 24.9766 40.5312 24.8203C40.4792 24.6641 40.4661 24.4557 40.4922 24.1953C41.9245 23.2839 43.1875 22.5677 44.2812 22.0469C45.375 21.5 46.4427 21.0312 47.4844 20.6406C48.526 20.25 49.5938 19.8854 50.6875 19.5469C51.8073 19.1823 53.0964 18.7135 54.5547 18.1406C53.9557 17.8021 53.1745 17.4896 52.2109 17.2031C51.2734 16.9167 50.3229 16.6042 49.3594 16.2656C48.4219 15.901 47.5625 15.4583 46.7812 14.9375C46 14.4167 45.4792 13.7396 45.2188 12.9062C44.8542 12.8802 44.5286 12.6719 44.2422 12.2812C43.9818 11.8906 43.8776 11.4349 43.9297 10.9141C44.1901 10.7578 44.4245 10.5885 44.6328 10.4062C44.8672 10.1979 45.1536 10.0417 45.4922 9.9375C45.7786 9.88542 46.1432 9.91146 46.5859 10.0156C47.0547 10.1198 47.5495 10.263 48.0703 10.4453C48.6172 10.6276 49.1771 10.8229 49.75 11.0312C50.349 11.2396 50.9089 11.4089 51.4297 11.5391C51.9505 11.6693 52.5104 11.7865 53.1094 11.8906C53.7344 11.9948 54.3073 12.151 54.8281 12.3594C55.0625 12.4635 55.2578 12.5938 55.4141 12.75C55.5964 12.8802 55.8047 12.9714 56.0391 13.0234C56.5078 13.1016 57.0026 13.2578 57.5234 13.4922C58.0703 13.7005 58.6172 13.9349 59.1641 14.1953C59.7109 14.4557 60.2448 14.7292 60.7656 15.0156C61.3125 15.276 61.8203 15.4974 62.2891 15.6797C62.263 15.8359 62.4323 16.0312 62.7969 16.2656C63.1615 16.5 63.5521 16.6302 63.9688 16.6562Z" fill="black"/>
</svg>
