<svg width="16" height="16" viewBox="0 0 16 16" fill="none" xmlns="http://www.w3.org/2000/svg">
<g clip-path="url(#clip0_12_24)">
<path d="M11.3333 1.33333H4.66665C2.8257 1.33333 1.33331 2.82572 1.33331 4.66667V11.3333C1.33331 13.1743 2.8257 14.6667 4.66665 14.6667H11.3333C13.1743 14.6667 14.6666 13.1743 14.6666 11.3333V4.66667C14.6666 2.82572 13.1743 1.33333 11.3333 1.33333Z" stroke="#AEAEAE" stroke-width="2" stroke-linecap="round" stroke-linejoin="round"/>
<path d="M10.6667 7.58C10.7489 8.13483 10.6542 8.70148 10.3958 9.19934C10.1375 9.69721 9.72877 10.1009 9.22776 10.3531C8.72675 10.6053 8.15897 10.6931 7.6052 10.604C7.05143 10.5148 6.53985 10.2534 6.14323 9.85677C5.74662 9.46016 5.48516 8.94858 5.39605 8.39481C5.30694 7.84104 5.39472 7.27326 5.64689 6.77225C5.89907 6.27124 6.3028 5.86249 6.80066 5.60416C7.29853 5.34583 7.86518 5.25106 8.42001 5.33333C8.98596 5.41726 9.50991 5.68098 9.91447 6.08554C10.319 6.4901 10.5828 7.01405 10.6667 7.58Z" stroke="#AEAEAE" stroke-width="2" stroke-linecap="round" stroke-linejoin="round"/>
</g>
<defs>
<clipPath id="clip0_12_24">
<rect class='mudar-cor' width="16" height="16" fill="white"/>
</clipPath>
</defs>
</svg>
