<svg width="16" height="16" viewBox="0 0 16 16" fill="none" xmlns="http://www.w3.org/2000/svg">
<path d="M10.6667 5.33333C11.7276 5.33333 12.745 5.75476 13.4951 6.50491C14.2453 7.25505 14.6667 8.27247 14.6667 9.33333V14H12V9.33333C12 8.97971 11.8595 8.64057 11.6095 8.39053C11.3594 8.14048 11.0203 8 10.6667 8C10.3131 8 9.97393 8.14048 9.72388 8.39053C9.47383 8.64057 9.33335 8.97971 9.33335 9.33333V14H6.66669V9.33333C6.66669 8.27247 7.08811 7.25505 7.83826 6.50491C8.58841 5.75476 9.60582 5.33333 10.6667 5.33333Z" stroke="#AEAEAE" stroke-width="2" stroke-linecap="round" stroke-linejoin="round"/>
<path d="M3.99998 6H1.33331V14H3.99998V6Z" stroke="#AEAEAE" stroke-width="2" stroke-linecap="round" stroke-linejoin="round"/>
<path d="M2.66665 4C3.40303 4 3.99998 3.40305 3.99998 2.66667C3.99998 1.93029 3.40303 1.33333 2.66665 1.33333C1.93027 1.33333 1.33331 1.93029 1.33331 2.66667C1.33331 3.40305 1.93027 4 2.66665 4Z" stroke="#AEAEAE" stroke-width="2" stroke-linecap="round" stroke-linejoin="round"/>
</svg>
