<svg width="207" height="94" viewBox="0 0 207 94" fill="none" xmlns="http://www.w3.org/2000/svg">
<path d="M74.25 32.25C75.1667 32.9167 75.8333 33.4167 76.25 33.75C76.75 34 77.125 34.2083 77.375 34.375C77.7083 34.5417 78 34.75 78.25 35C78.5833 35.25 79.0833 35.625 79.75 36.125C79.3333 37.0417 79.125 37.75 79.125 38.25C79.125 38.75 79.1667 39.25 79.25 39.75C79.3333 40.1667 79.4167 40.625 79.5 41.125C79.6667 41.625 79.7083 42.2917 79.625 43.125C75.0417 46.0417 70.9583 48.375 67.375 50.125C63.875 51.7917 60.4583 53.25 57.125 54.5C53.875 55.75 50.4583 56.9583 46.875 58.125C43.375 59.2083 39.2917 60.6667 34.625 62.5C36.5417 63.6667 39 64.7083 42 65.625C45.0833 66.4583 48.125 67.4583 51.125 68.625C54.2083 69.7083 57 71.0833 59.5 72.75C62 74.4167 63.6667 76.5833 64.5 79.25C65.6667 79.3333 66.6667 80 67.5 81.25C68.4167 82.5 68.7917 83.9583 68.625 85.625C67.7917 86.125 67 86.7083 66.25 87.375C65.5833 87.9583 64.7083 88.4167 63.625 88.75C62.7083 88.9167 61.5 88.8333 60 88.5C58.5833 88.1667 57 87.7083 55.25 87.125C53.5833 86.5417 51.7917 85.9167 49.875 85.25C48.0417 84.5833 46.2917 84.0417 44.625 83.625C42.9583 83.2083 41.125 82.8333 39.125 82.5C37.2083 82.1667 35.4167 81.6667 33.75 81C33 80.6667 32.3333 80.2917 31.75 79.875C31.25 79.375 30.625 79.0417 29.875 78.875C28.375 78.625 26.75 78.1667 25 77.5C23.3333 76.75 21.625 75.9583 19.875 75.125C18.125 74.2917 16.375 73.4583 14.625 72.625C12.9583 71.7917 11.375 71.0417 9.875 70.375C9.95833 69.875 9.41667 69.25 8.25 68.5C7.08333 67.75 5.83333 67.3333 4.5 67.25C4.5 66.25 4.08333 65.375 3.25 64.625C2.5 63.7917 1.91667 62.875 1.5 61.875C0.583333 59.5417 0.916667 57.3333 2.5 55.25C4.08333 53.1667 6.45833 51.9167 9.625 51.5C10.625 51.8333 11.375 52 11.875 52C12.4583 51.9167 13.2083 52.0833 14.125 52.5C15.625 51.5 17.4167 50.5417 19.5 49.625C21.6667 48.625 23.75 48.3333 25.75 48.75C26 48.0833 26.4583 47.75 27.125 47.75C27.875 47.75 28.3333 47.375 28.5 46.625C31.9167 46.0417 35.25 45.125 38.5 43.875C41.75 42.625 44.9167 41.2917 48 39.875C51.0833 38.375 54.0417 36.9167 56.875 35.5C59.7917 34 62.5833 32.6667 65.25 31.5C66.4167 31.8333 67.5 31.8333 68.5 31.5C69.5 31.0833 70.5417 30.9167 71.625 31C71.375 31.25 71.3333 31.4167 71.5 31.5C71.6667 31.5833 71.9167 31.6667 72.25 31.75C72.5833 31.75 72.9167 31.7917 73.25 31.875C73.6667 31.875 74 32 74.25 32.25ZM117.25 21.875C118.75 20.7917 120.375 19.0417 122.125 16.625C123.875 14.125 125.708 11.6667 127.625 9.25C129.625 6.83333 131.625 4.75 133.625 3C135.708 1.16667 137.792 0.375 139.875 0.625C141.208 3.625 141.917 6.625 142 9.625C142.083 12.5417 141.792 15.875 141.125 19.625C140.375 20.5417 139.292 21.7917 137.875 23.375C136.458 24.9583 134.875 26.75 133.125 28.75C131.458 30.6667 129.708 32.6667 127.875 34.75C126.042 36.8333 124.292 38.8333 122.625 40.75C121.042 42.6667 119.625 44.4167 118.375 46C117.208 47.5833 116.417 48.8333 116 49.75C114.833 51 113.25 52.75 111.25 55C109.333 57.25 107.333 59.625 105.25 62.125C103.167 64.625 101.125 67.0833 99.125 69.5C97.2083 71.8333 95.625 73.7917 94.375 75.375C94.2917 75.7917 94.4167 76.1667 94.75 76.5C95.0833 76.8333 95.3333 77.2083 95.5 77.625C94.5833 78.4583 94.0417 79.25 93.875 80C93.7083 80.6667 93.6667 81.375 93.75 82.125C93.8333 82.875 93.9583 83.625 94.125 84.375C94.2917 85.0417 94.3333 85.7917 94.25 86.625C93.6667 87.125 93.1667 87.7083 92.75 88.375C92.4167 89.0417 92.0417 89.7083 91.625 90.375C91.2917 90.9583 90.8333 91.5417 90.25 92.125C89.75 92.7083 89.0833 93.2083 88.25 93.625C86.5 93.4583 85.0833 93.2083 84 92.875C82.9167 92.625 81.625 92.375 80.125 92.125C78.7083 90.9583 77.75 89.5417 77.25 87.875C76.75 86.125 76.5417 84.375 76.625 82.625C76.625 80.7917 76.8333 79 77.25 77.25C77.5833 75.4167 77.9583 73.8333 78.375 72.5C79.2917 71.9167 79.3333 71.5 78.5 71.25C78.8333 70.0833 79.4167 69.125 80.25 68.375C81.0833 67.5417 81.5 66.8333 81.5 66.25C82.0833 65.3333 83.2083 63.9583 84.875 62.125C86.5417 60.2083 88.3333 58.1667 90.25 56C92.25 53.8333 94.1667 51.75 96 49.75C97.8333 47.6667 99.25 46.0417 100.25 44.875C100.75 43.5417 101.875 41.8333 103.625 39.75C105.458 37.5833 107.333 35.375 109.25 33.125C111.25 30.875 113.042 28.75 114.625 26.75C116.292 24.75 117.167 23.125 117.25 21.875ZM202.5 52.5C202.5 53.5 202.875 54.4167 203.625 55.25C204.458 56 205.083 56.875 205.5 57.875C206 59.0417 206.125 60.2083 205.875 61.375C205.708 62.5417 205.25 63.5833 204.5 64.5C203.75 65.4167 202.75 66.2083 201.5 66.875C200.333 67.5417 198.958 68 197.375 68.25C196.375 67.8333 195.583 67.6667 195 67.75C194.5 67.8333 193.792 67.6667 192.875 67.25C191.375 68.25 189.542 69.25 187.375 70.25C185.292 71.1667 183.25 71.4167 181.25 71C181 71.6667 180.5 72 179.75 72C179.083 72 178.667 72.375 178.5 73.125C175.083 73.7083 171.75 74.625 168.5 75.875C165.25 77.125 162.083 78.5 159 80C155.917 81.4167 152.917 82.875 150 84.375C147.167 85.875 144.417 87.1667 141.75 88.25C140.583 87.9167 139.5 87.9583 138.5 88.375C137.5 88.7083 136.458 88.8333 135.375 88.75C135.625 88.5 135.667 88.3333 135.5 88.25C135.333 88.1667 135.083 88.125 134.75 88.125C134.417 88.0417 134.042 88 133.625 88C133.292 87.9167 133 87.75 132.75 87.5C131.833 86.9167 131.167 86.4583 130.75 86.125C130.25 85.7917 129.875 85.5417 129.625 85.375C129.292 85.2083 128.958 85 128.625 84.75C128.292 84.5 127.833 84.125 127.25 83.625C127.583 82.7917 127.792 82.125 127.875 81.625C127.875 81.0417 127.833 80.5417 127.75 80.125C127.667 79.625 127.583 79.125 127.5 78.625C127.333 78.125 127.292 77.4583 127.375 76.625C131.958 73.7083 136 71.4167 139.5 69.75C143 68 146.417 66.5 149.75 65.25C153.083 64 156.5 62.8333 160 61.75C163.583 60.5833 167.708 59.0833 172.375 57.25C170.458 56.1667 167.958 55.1667 164.875 54.25C161.875 53.3333 158.833 52.3333 155.75 51.25C152.75 50.0833 150 48.6667 147.5 47C145 45.3333 143.333 43.1667 142.5 40.5C141.333 40.4167 140.292 39.75 139.375 38.5C138.542 37.25 138.208 35.7917 138.375 34.125C139.208 33.625 139.958 33.0833 140.625 32.5C141.375 31.8333 142.292 31.3333 143.375 31C144.292 30.8333 145.458 30.9167 146.875 31.25C148.375 31.5833 149.958 32.0417 151.625 32.625C153.375 33.2083 155.167 33.8333 157 34.5C158.917 35.1667 160.708 35.7083 162.375 36.125C164.042 36.5417 165.833 36.9167 167.75 37.25C169.75 37.5833 171.583 38.0833 173.25 38.75C174 39.0833 174.625 39.5 175.125 40C175.708 40.4167 176.375 40.7083 177.125 40.875C178.625 41.125 180.208 41.625 181.875 42.375C183.625 43.0417 185.375 43.7917 187.125 44.625C188.875 45.4583 190.583 46.3333 192.25 47.25C194 48.0833 195.625 48.7917 197.125 49.375C197.042 49.875 197.583 50.5 198.75 51.25C199.917 52 201.167 52.4167 202.5 52.5Z" fill="#CCCCCC"/>
</svg>
